<svg width="40" height="40" viewBox="0 0 40 40" xmlns="http://www.w3.org/2000/svg">
  <rect width="40" height="40" fill="none"/>
  
  <!-- Pattern elements -->
  <rect x="0" y="0" width="8" height="8" fill="#ffffff" opacity="0.05"/>
  <rect x="16" y="0" width="8" height="8" fill="#ffffff" opacity="0.05"/>
  <rect x="32" y="0" width="8" height="8" fill="#ffffff" opacity="0.05"/>
  
  <rect x="8" y="8" width="8" height="8" fill="#ffffff" opacity="0.05"/>
  <rect x="24" y="8" width="8" height="8" fill="#ffffff" opacity="0.05"/>
  
  <rect x="0" y="16" width="8" height="8" fill="#ffffff" opacity="0.05"/>
  <rect x="16" y="16" width="8" height="8" fill="#ffffff" opacity="0.05"/>
  <rect x="32" y="16" width="8" height="8" fill="#ffffff" opacity="0.05"/>
  
  <rect x="8" y="24" width="8" height="8" fill="#ffffff" opacity="0.05"/>
  <rect x="24" y="24" width="8" height="8" fill="#ffffff" opacity="0.05"/>
  
  <rect x="0" y="32" width="8" height="8" fill="#ffffff" opacity="0.05"/>
  <rect x="16" y="32" width="8" height="8" fill="#ffffff" opacity="0.05"/>
  <rect x="32" y="32" width="8" height="8" fill="#ffffff" opacity="0.05"/>
  
  <!-- Small decorative elements -->
  <rect x="12" y="4" width="4" height="4" fill="#ffffff" opacity="0.025"/>
  <rect x="28" y="4" width="4" height="4" fill="#ffffff" opacity="0.025"/>
  <rect x="4" y="12" width="4" height="4" fill="#ffffff" opacity="0.025"/>
  <rect x="20" y="12" width="4" height="4" fill="#ffffff" opacity="0.025"/>
  <rect x="36" y="12" width="4" height="4" fill="#ffffff" opacity="0.025"/>
  <rect x="12" y="20" width="4" height="4" fill="#ffffff" opacity="0.025"/>
  <rect x="28" y="20" width="4" height="4" fill="#ffffff" opacity="0.025"/>
  <rect x="4" y="28" width="4" height="4" fill="#ffffff" opacity="0.025"/>
  <rect x="20" y="28" width="4" height="4" fill="#ffffff" opacity="0.025"/>
  <rect x="36" y="28" width="4" height="4" fill="#ffffff" opacity="0.025"/>
</svg> 