<svg width="60" height="60" viewBox="0 0 60 60" xmlns="http://www.w3.org/2000/svg">
  <rect width="60" height="60" fill="none"/>
  
  <!-- Circuit lines horizontal -->
  <path d="M0 10 L60 10" stroke="#ffffff" stroke-width="0.5" opacity="0.05"/>
  <path d="M0 30 L60 30" stroke="#ffffff" stroke-width="0.5" opacity="0.05"/>
  <path d="M0 50 L60 50" stroke="#ffffff" stroke-width="0.5" opacity="0.05"/>
  
  <!-- Circuit lines vertical -->
  <path d="M10 0 L10 60" stroke="#ffffff" stroke-width="0.5" opacity="0.05"/>
  <path d="M30 0 L30 60" stroke="#ffffff" stroke-width="0.5" opacity="0.05"/>
  <path d="M50 0 L50 60" stroke="#ffffff" stroke-width="0.5" opacity="0.05"/>
  
  <!-- Circuit connections -->
  <circle cx="10" cy="10" r="2" fill="#ffffff" opacity="0.07"/>
  <circle cx="30" cy="10" r="2" fill="#ffffff" opacity="0.07"/>
  <circle cx="50" cy="10" r="2" fill="#ffffff" opacity="0.07"/>
  
  <circle cx="10" cy="30" r="2" fill="#ffffff" opacity="0.07"/>
  <circle cx="30" cy="30" r="2" fill="#ffffff" opacity="0.07"/>
  <circle cx="50" cy="30" r="2" fill="#ffffff" opacity="0.07"/>
  
  <circle cx="10" cy="50" r="2" fill="#ffffff" opacity="0.07"/>
  <circle cx="30" cy="50" r="2" fill="#ffffff" opacity="0.07"/>
  <circle cx="50" cy="50" r="2" fill="#ffffff" opacity="0.07"/>
  
  <!-- Connecting paths -->
  <path d="M12 10 L18 10 L18 20 L28 20 L28 30" stroke="#ffffff" stroke-width="0.5" opacity="0.05"/>
  <path d="M30 12 L30 18 L40 18 L40 28 L50 28" stroke="#ffffff" stroke-width="0.5" opacity="0.05"/>
  <path d="M10 32 L10 38 L20 38 L20 48 L30 48" stroke="#ffffff" stroke-width="0.5" opacity="0.05"/>
  <path d="M50 32 L50 38 L42 38 L42 48 L32 48" stroke="#ffffff" stroke-width="0.5" opacity="0.05"/>
  
  <!-- Small circuit elements -->
  <rect x="17" y="9" width="2" height="2" fill="#ffffff" opacity="0.07"/>
  <rect x="27" y="19" width="2" height="2" fill="#ffffff" opacity="0.07"/>
  <rect x="39" y="17" width="2" height="2" fill="#ffffff" opacity="0.07"/>
  <rect x="49" y="27" width="2" height="2" fill="#ffffff" opacity="0.07"/>
  <rect x="19" y="37" width="2" height="2" fill="#ffffff" opacity="0.07"/>
  <rect x="9" y="37" width="2" height="2" fill="#ffffff" opacity="0.07"/>
  <rect x="41" y="37" width="2" height="2" fill="#ffffff" opacity="0.07"/>
  <rect x="31" y="47" width="2" height="2" fill="#ffffff" opacity="0.07"/>
</svg> 