<svg width="20" height="20" viewBox="0 0 20 20" xmlns="http://www.w3.org/2000/svg">
  <rect width="20" height="20" fill="none"/>
  <path d="M0 0 L1 0 L1 20 L0 20 Z" fill="#ffffff" opacity="0.05"/>
  <path d="M5 0 L6 0 L6 20 L5 20 Z" fill="#ffffff" opacity="0.05"/>
  <path d="M10 0 L11 0 L11 20 L10 20 Z" fill="#ffffff" opacity="0.05"/>
  <path d="M15 0 L16 0 L16 20 L15 20 Z" fill="#ffffff" opacity="0.05"/>
  <path d="M0 0 L20 0 L20 1 L0 1 Z" fill="#ffffff" opacity="0.05"/>
  <path d="M0 5 L20 5 L20 6 L0 6 Z" fill="#ffffff" opacity="0.05"/>
  <path d="M0 10 L20 10 L20 11 L0 11 Z" fill="#ffffff" opacity="0.05"/>
  <path d="M0 15 L20 15 L20 16 L0 16 Z" fill="#ffffff" opacity="0.05"/>
</svg> 