<svg xmlns="http://www.w3.org/2000/svg" width="32" height="32" viewBox="0 0 32 32" fill="none">
  <!-- Background circle -->
  <circle cx="16" cy="16" r="16" fill="#1A1A1A"/>
  
  <!-- Stylized N with feather elements -->
  <path d="M11 8L11 24" stroke="#3b866e" stroke-width="2" stroke-linecap="round"/>
  <path d="M21 8L21 24" stroke="#3b866e" stroke-width="2" stroke-linecap="round"/>
  <path d="M11 8L21 24" stroke="#3b866e" stroke-width="2" stroke-linecap="round"/>
  
  <!-- Circuit patterns -->
  <path d="M11 12L7 12L7 14" stroke="#3b866e" stroke-width="1" stroke-linecap="round"/>
  <path d="M11 18L7 18L7 16" stroke="#3b866e" stroke-width="1" stroke-linecap="round"/>
  <path d="M21 12L25 12L25 14" stroke="#3b866e" stroke-width="1" stroke-linecap="round"/>
  <path d="M21 18L25 18L25 16" stroke="#3b866e" stroke-width="1" stroke-linecap="round"/>
  
  <!-- Feather barbs -->
  <path d="M11 10L8 8" stroke="#3b866e" stroke-width="1" stroke-linecap="round" opacity="0.7"/>
  <path d="M11 14L8 12" stroke="#3b866e" stroke-width="1" stroke-linecap="round" opacity="0.7"/>
  <path d="M11 18L8 16" stroke="#3b866e" stroke-width="1" stroke-linecap="round" opacity="0.7"/>
  <path d="M11 22L8 20" stroke="#3b866e" stroke-width="1" stroke-linecap="round" opacity="0.7"/>
  
  <path d="M21 10L24 8" stroke="#3b866e" stroke-width="1" stroke-linecap="round" opacity="0.7"/>
  <path d="M21 14L24 12" stroke="#3b866e" stroke-width="1" stroke-linecap="round" opacity="0.7"/>
  <path d="M21 18L24 16" stroke="#3b866e" stroke-width="1" stroke-linecap="round" opacity="0.7"/>
  <path d="M21 22L24 20" stroke="#3b866e" stroke-width="1" stroke-linecap="round" opacity="0.7"/>
</svg> 