<svg xmlns="http://www.w3.org/2000/svg" version="1.1" xmlns:xlink="http://www.w3.org/1999/xlink" xmlns:svgjs="http://svgjs.dev/svgjs" width="1000" height="1000"><g clip-path="url(#SvgjsClipPath1387)"><rect width="1000" height="1000" fill="#000000"></rect><g transform="matrix(28.125,0,0,28.125,50,50)"><svg xmlns="http://www.w3.org/2000/svg" version="1.1" xmlns:xlink="http://www.w3.org/1999/xlink" xmlns:svgjs="http://svgjs.dev/svgjs" width="32" height="32"><svg width="32" height="32" viewBox="0 0 32 32" fill="none" xmlns="http://www.w3.org/2000/svg">
<circle cx="16" cy="16" r="16" fill="black"></circle>
<path d="M22.6097 21.5182V7.93277C22.6097 7.27918 22.1823 6.9057 21.3276 6.81232L20.5014 6.72829C20.2925 6.69094 20.188 6.56022 20.188 6.33613C20.188 6.11204 20.321 6 20.5869 6L23.3504 6.08403L25.5726 6C25.8576 6 26 6.11204 26 6.33613C26 6.56022 25.8765 6.69094 25.6296 6.72829L25.1453 6.81232C24.3856 6.94304 24.0057 7.31653 24.0057 7.93277V25.6639C24.0057 25.888 23.9012 26 23.6923 26H23.3219C22.8471 26 22.4387 25.7759 22.0969 25.3277L10.1026 10.2297C10.0646 10.1923 10.0076 10.1737 9.93162 10.1737C9.85565 10.1737 9.81766 10.267 9.81766 10.4538V23.8431C9.81766 24.4594 10.1975 24.8329 10.9573 24.9636L11.4416 25.0476C11.6885 25.085 11.812 25.2157 11.812 25.4398C11.812 25.6639 11.6695 25.7759 11.3846 25.7759L9.16239 25.6919L6.39886 25.7759C6.13295 25.7759 6 25.6639 6 25.4398C6 25.2157 6.10446 25.085 6.31339 25.0476L7.1396 24.9636C8.0133 24.8702 8.45014 24.4967 8.45014 23.8431V7.93277C8.45014 7.27918 8.07028 6.9057 7.31054 6.81232L6.79772 6.7563C6.5698 6.71895 6.45584 6.58823 6.45584 6.36414C6.45584 6.12138 6.59829 6 6.88319 6L9.16239 6.08403C9.7132 6.10271 10.1311 6.28011 10.416 6.61624L22.2963 21.6022C22.3533 21.6583 22.4198 21.6863 22.4957 21.6863C22.5717 21.6863 22.6097 21.6303 22.6097 21.5182Z" fill="#00B89E" stroke="#00B89E" stroke-width="0.5"></path>
</svg></svg></g></g><defs><clipPath id="SvgjsClipPath1387"><rect width="1000" height="1000" x="0" y="0" rx="200" ry="200"></rect></clipPath></defs></svg>