<svg width="430" height="430" viewBox="0 0 430 430" fill="none" xmlns="http://www.w3.org/2000/svg">
<path fill-rule="evenodd" clip-rule="evenodd" d="M215 430C333.741 430 430 333.741 430 215C430 96.2588 333.741 0 215 0C96.2588 0 0 96.2588 0 215C0 333.741 96.2588 430 215 430ZM215 400C317.173 400 400 317.173 400 215C400 112.827 317.173 30 215 30C112.827 30 30 112.827 30 215C30 317.173 112.827 400 215 400Z" fill="url(#paint0_radial_85_57)"/>
<path fill-rule="evenodd" clip-rule="evenodd" d="M215 430C333.741 430 430 333.741 430 215C430 96.2588 333.741 0 215 0C96.2588 0 0 96.2588 0 215C0 333.741 96.2588 430 215 430ZM215 400C317.173 400 400 317.173 400 215C400 112.827 317.173 30 215 30C112.827 30 30 112.827 30 215C30 317.173 112.827 400 215 400Z" fill="url(#paint1_linear_85_57)" fill-opacity="0.42"/>
<path fill-rule="evenodd" clip-rule="evenodd" d="M215 430C333.741 430 430 333.741 430 215C430 96.2588 333.741 0 215 0C96.2588 0 0 96.2588 0 215C0 333.741 96.2588 430 215 430ZM215 400C317.173 400 400 317.173 400 215C400 112.827 317.173 30 215 30C112.827 30 30 112.827 30 215C30 317.173 112.827 400 215 400Z" fill="url(#paint2_linear_85_57)" fill-opacity="0.41" style="mix-blend-mode:darken"/>
<g filter="url(#filter0_i_85_57)">
<circle cx="215" cy="215" r="185" fill="#E9EFF2"/>
</g>
<g filter="url(#filter1_d_85_57)">
<path d="M280.927 271.062V131.811C280.927 125.112 276.632 121.283 268.043 120.326L259.739 119.465C257.64 119.082 256.59 117.742 256.59 115.445C256.59 113.148 257.926 112 260.598 112L288.372 112.861L310.705 112C313.568 112 315 113.148 315 115.445C315 117.742 313.759 119.082 311.278 119.465L306.41 120.326C298.775 121.666 294.957 125.494 294.957 131.811V313.555C294.957 315.852 293.907 317 291.808 317H288.085C283.313 317 279.209 314.703 275.773 310.109L155.231 155.354C154.849 154.972 154.276 154.78 153.513 154.78C152.749 154.78 152.368 155.737 152.368 157.651V294.892C152.368 301.209 156.185 305.037 163.821 306.377L168.688 307.238C171.17 307.621 172.41 308.961 172.41 311.258C172.41 313.555 170.979 314.703 168.115 314.703L145.782 313.842L118.009 314.703C115.336 314.703 114 313.555 114 311.258C114 308.961 115.05 307.621 117.15 307.238L125.453 306.377C134.234 305.42 138.624 301.592 138.624 294.892V131.811C138.624 125.112 134.806 121.283 127.171 120.326L122.017 119.752C119.726 119.369 118.581 118.029 118.581 115.732C118.581 113.244 120.013 112 122.876 112L145.782 112.861C151.318 113.053 155.517 114.871 158.38 118.317L277.778 271.923C278.35 272.497 279.019 272.784 279.782 272.784C280.546 272.784 280.927 272.21 280.927 271.062Z" fill="black"/>
</g>
<defs>
<filter id="filter0_i_85_57" x="30" y="30" width="377" height="376" filterUnits="userSpaceOnUse" color-interpolation-filters="sRGB">
<feFlood flood-opacity="0" result="BackgroundImageFix"/>
<feBlend mode="normal" in="SourceGraphic" in2="BackgroundImageFix" result="shape"/>
<feColorMatrix in="SourceAlpha" type="matrix" values="0 0 0 0 0 0 0 0 0 0 0 0 0 0 0 0 0 0 127 0" result="hardAlpha"/>
<feMorphology radius="8" operator="erode" in="SourceAlpha" result="effect1_innerShadow_85_57"/>
<feOffset dx="7" dy="6"/>
<feGaussianBlur stdDeviation="14.5"/>
<feComposite in2="hardAlpha" operator="arithmetic" k2="-1" k3="1"/>
<feColorMatrix type="matrix" values="0 0 0 0 0 0 0 0 0 0 0 0 0 0 0 0 0 0 0.19 0"/>
<feBlend mode="normal" in2="shape" result="effect1_innerShadow_85_57"/>
</filter>
<filter id="filter1_d_85_57" x="110" y="112" width="209" height="213" filterUnits="userSpaceOnUse" color-interpolation-filters="sRGB">
<feFlood flood-opacity="0" result="BackgroundImageFix"/>
<feColorMatrix in="SourceAlpha" type="matrix" values="0 0 0 0 0 0 0 0 0 0 0 0 0 0 0 0 0 0 127 0" result="hardAlpha"/>
<feOffset dy="4"/>
<feGaussianBlur stdDeviation="2"/>
<feComposite in2="hardAlpha" operator="out"/>
<feColorMatrix type="matrix" values="0 0 0 0 0 0 0 0 0 0 0 0 0 0 0 0 0 0 0.25 0"/>
<feBlend mode="normal" in2="BackgroundImageFix" result="effect1_dropShadow_85_57"/>
<feBlend mode="normal" in="SourceGraphic" in2="effect1_dropShadow_85_57" result="shape"/>
</filter>
<radialGradient id="paint0_radial_85_57" cx="0" cy="0" r="1" gradientUnits="userSpaceOnUse" gradientTransform="translate(215 215) rotate(-136.615) scale(263.502)">
<stop offset="0.646133"/>
<stop offset="0.711249" stop-color="#929292"/>
<stop offset="0.747833" stop-color="#DFDFDF" stop-opacity="0.18"/>
<stop offset="0.779444" stop-color="#777777" stop-opacity="0.68"/>
<stop offset="0.859444"/>
</radialGradient>
<linearGradient id="paint1_linear_85_57" x1="-30" y1="-27" x2="137" y2="136" gradientUnits="userSpaceOnUse">
<stop offset="0.437073"/>
<stop offset="0.589057" stop-color="#717171" stop-opacity="0.52"/>
<stop offset="0.955368"/>
</linearGradient>
<linearGradient id="paint2_linear_85_57" x1="326.5" y1="325.5" x2="383" y2="386" gradientUnits="userSpaceOnUse">
<stop/>
<stop offset="0.530539" stop-opacity="0.48"/>
<stop offset="1"/>
</linearGradient>
</defs>
</svg>
