<svg width="100" height="100" viewBox="0 0 100 100" fill="none" xmlns="http://www.w3.org/2000/svg">
<circle cx="46" cy="49" r="16" fill="white"/>
<path d="M55.5723 39C55.8571 39 55.9999 39.112 56 39.3359C56 39.56 55.8767 39.6911 55.6299 39.7285L55.1455 39.8125C54.3858 39.9432 54.0059 40.3165 54.0059 40.9326V58.6641C54.0058 58.888 53.9012 59 53.6924 59H53.3223C52.8475 59 52.4385 58.7762 52.0967 58.3281L40.1025 43.2295C40.0646 43.1922 40.0075 43.1738 39.9316 43.1738C39.8557 43.1738 39.8174 43.2674 39.8174 43.4541V56.8428C39.8174 57.459 40.1974 57.8331 40.957 57.9639L41.4414 58.0479C41.6882 58.0852 41.8114 58.2156 41.8115 58.4395C41.8115 58.6635 41.6696 58.7763 41.3848 58.7764L39.1621 58.6914L36.3984 58.7764C36.1328 58.7762 36 58.6634 36 58.4395C36.0001 58.2156 36.1047 58.0852 36.3135 58.0479L37.1396 57.9639C38.0133 57.8705 38.4502 57.4964 38.4502 56.8428V40.9326C38.4501 40.2791 38.0702 39.9059 37.3105 39.8125L36.7979 39.7559C36.57 39.7185 36.4561 39.5883 36.4561 39.3643C36.4561 39.1216 36.5982 39.0001 36.8828 39L39.1621 39.084C39.7129 39.1027 40.1311 39.2801 40.416 39.6162L52.2959 54.6025C52.3529 54.6586 52.4201 54.6865 52.4961 54.6865C52.5717 54.6863 52.6093 54.6302 52.6094 54.5186V40.9326C52.6093 40.2791 52.1818 39.9059 51.3271 39.8125L50.501 39.7285C50.2923 39.6911 50.1885 39.5599 50.1885 39.3359C50.1886 39.112 50.3211 39 50.5869 39L53.3506 39.084L55.5723 39Z" fill="black"/>
<path d="M55.5723 39C55.8571 39 55.9999 39.112 56 39.3359C56 39.56 55.8767 39.6911 55.6299 39.7285L55.1455 39.8125C54.3858 39.9432 54.0059 40.3165 54.0059 40.9326V58.6641C54.0058 58.888 53.9012 59 53.6924 59H53.3223C52.8475 59 52.4385 58.7762 52.0967 58.3281L40.1025 43.2295C40.0646 43.1922 40.0075 43.1738 39.9316 43.1738C39.8557 43.1738 39.8174 43.2674 39.8174 43.4541V56.8428C39.8174 57.459 40.1974 57.8331 40.957 57.9639L41.4414 58.0479C41.6882 58.0852 41.8114 58.2156 41.8115 58.4395C41.8115 58.6635 41.6696 58.7763 41.3848 58.7764L39.1621 58.6914L36.3984 58.7764C36.1328 58.7762 36 58.6634 36 58.4395C36.0001 58.2156 36.1047 58.0852 36.3135 58.0479L37.1396 57.9639C38.0133 57.8705 38.4502 57.4964 38.4502 56.8428V40.9326C38.4501 40.2791 38.0702 39.9059 37.3105 39.8125L36.7979 39.7559C36.57 39.7185 36.4561 39.5883 36.4561 39.3643C36.4561 39.1216 36.5982 39.0001 36.8828 39L39.1621 39.084C39.7129 39.1027 40.1311 39.2801 40.416 39.6162L52.2959 54.6025C52.3529 54.6586 52.4201 54.6865 52.4961 54.6865C52.5717 54.6863 52.6093 54.6302 52.6094 54.5186V40.9326C52.6093 40.2791 52.1818 39.9059 51.3271 39.8125L50.501 39.7285C50.2923 39.6911 50.1885 39.5599 50.1885 39.3359C50.1886 39.112 50.3211 39 50.5869 39L53.3506 39.084L55.5723 39Z" stroke="black"/>
</svg>
