<?xml version="1.0" encoding="UTF-8"?>
<svg width="120" height="40" viewBox="0 0 120 40" fill="none" xmlns="http://www.w3.org/2000/svg">
  <path d="M15 8L5 32H11L21 8H15Z" fill="#6366F1"/>
  <path d="M25 8L15 32H21L31 8H25Z" fill="#8B5CF6"/>
  <path d="M35 8L25 32H31L41 8H35Z" fill="#EC4899"/>
  <path d="M52.5 26V14H55.5L61.5 22V14H64.5V26H61.5L55.5 18V26H52.5Z" fill="currentColor"/>
  <path d="M67.5 26V14H76.5V17H70.5V18.5H75V21.5H70.5V23H76.5V26H67.5Z" fill="currentColor"/>
  <path d="M80.5 26L84.5 14H88.5L92.5 26H89.5L88.5 23H84.5L83.5 26H80.5ZM85.5 20H87.5L86.5 17L85.5 20Z" fill="currentColor"/>
  <path d="M94.5 26V14H97.5V23H103.5V26H94.5Z" fill="currentColor"/>
  <path d="M106.5 26L110.5 20L106.5 14H110L112.5 18L115 14H118.5L114.5 20L118.5 26H115L112.5 22L110 26H106.5Z" fill="currentColor"/>
</svg> 