<svg width="100" height="100" viewBox="0 0 100 100" xmlns="http://www.w3.org/2000/svg">
  <defs>
    <pattern id="flow-lines" patternUnits="userSpaceOnUse" width="100" height="100">
      <!-- Horizontal flow lines with different opacity levels -->
      <path d="M0,20 C30,18 70,22 100,20" fill="none" stroke="currentColor" stroke-width="1" stroke-opacity="0.4" stroke-dasharray="4 2"/>
      <path d="M0,40 C20,35 50,45 100,40" fill="none" stroke="currentColor" stroke-width="1" stroke-opacity="0.3" stroke-dasharray="4 2"/>
      <path d="M0,60 C40,55 60,65 100,60" fill="none" stroke="currentColor" stroke-width="1" stroke-opacity="0.5" stroke-dasharray="4 2"/>
      <path d="M0,80 C10,75 90,85 100,80" fill="none" stroke="currentColor" stroke-width="1" stroke-opacity="0.2" stroke-dasharray="4 2"/>
      
      <!-- Flow nodes at intersections -->
      <circle cx="25" cy="20" r="2" fill="currentColor" fill-opacity="0.5"/>
      <circle cx="75" cy="20" r="2" fill="currentColor" fill-opacity="0.5"/>
      <circle cx="30" cy="40" r="2" fill="currentColor" fill-opacity="0.5"/>
      <circle cx="70" cy="40" r="2" fill="currentColor" fill-opacity="0.5"/>
      <circle cx="40" cy="60" r="2" fill="currentColor" fill-opacity="0.5"/>
      <circle cx="60" cy="60" r="2" fill="currentColor" fill-opacity="0.5"/>
      <circle cx="25" cy="80" r="2" fill="currentColor" fill-opacity="0.5"/>
      <circle cx="75" cy="80" r="2" fill="currentColor" fill-opacity="0.5"/>
    </pattern>
  </defs>
  <rect width="100%" height="100%" fill="url(#flow-lines)"/>
</svg> 