<?xml version="1.0" encoding="UTF-8"?>
<svg width="600" height="600" viewBox="0 0 600 600" xmlns="http://www.w3.org/2000/svg">
  <defs>
    <pattern id="tribute-pattern" patternUnits="userSpaceOnUse" width="100" height="100">
      <!-- Stepped pyramid motif with more detail -->
      <path d="M30,20 H70 V30 H60 V40 H50 V50 H40 V40 H30 V30 H20 V20 Z" 
        fill="none" stroke="currentColor" stroke-width="1" stroke-opacity="0.3"/>
      
      <!-- Inner detailing for pyramid -->
      <path d="M40,30 H60 V40 H50 V50 H40 V40 Z" 
        fill="none" stroke="currentColor" stroke-width="0.75" stroke-opacity="0.4"/>
      
      <!-- Ceremonial circular forms -->
      <circle cx="50" cy="35" r="3" fill="currentColor" fill-opacity="0.25"/>
      
      <!-- Decorative sun/star-like elements -->
      <path d="M10,10 L15,15 M5,15 L15,5 M10,5 L10,15 M5,10 L15,10" 
        stroke="currentColor" stroke-width="1" stroke-opacity="0.3" fill="none"/>
      <path d="M90,10 L85,15 M95,15 L85,5 M90,5 L90,15 M95,10 L85,10" 
        stroke="currentColor" stroke-width="1" stroke-opacity="0.3" fill="none"/>
      <path d="M10,90 L15,85 M5,85 L15,95 M10,95 L10,85 M5,90 L15,90" 
        stroke="currentColor" stroke-width="1" stroke-opacity="0.3" fill="none"/>
      <path d="M90,90 L85,85 M95,85 L85,95 M90,95 L90,85 M95,90 L85,90" 
        stroke="currentColor" stroke-width="1" stroke-opacity="0.3" fill="none"/>
      
      <!-- Mesoamerican border elements -->
      <path d="M0,70 H10 V80 H20 V90 H30 V100 H0 Z" fill="currentColor" fill-opacity="0.15"/>
      <path d="M100,70 H90 V80 H80 V90 H70 V100 H100 Z" fill="currentColor" fill-opacity="0.15"/>
      <path d="M0,30 H10 V20 H20 V10 H30 V0 H0 Z" fill="currentColor" fill-opacity="0.15"/>
      <path d="M100,30 H90 V20 H80 V10 H70 V0 H100 Z" fill="currentColor" fill-opacity="0.15"/>
      
      <!-- Glyph-like central element -->
      <path d="M45,70 L50,60 L55,70 L50,80 Z" fill="currentColor" fill-opacity="0.3"/>
    </pattern>
  </defs>
  <rect width="100%" height="100%" fill="url(#tribute-pattern)"/>
</svg> 